<?xml version="1.0" standalone="no"?>
<!DOCTYPE svg PUBLIC "-//W3C//DTD SVG 20010904//EN"
 "http://www.w3.org/TR/2001/REC-SVG-20010904/DTD/svg10.dtd">
<svg version="1.0" xmlns="http://www.w3.org/2000/svg"
 width="260.000000pt" height="260.000000pt" viewBox="0 0 260.000000 260.000000"
 preserveAspectRatio="xMidYMid meet">
<metadata>
Created by potrace 1.14, written by Peter Selinger 2001-2017
</metadata>
<g transform="translate(0.000000,260.000000) scale(0.100000,-0.100000)"
fill="#000000" stroke="none">
<path d="M1560 2391 c21 -17 23 -22 11 -33 -12 -11 -13 -11 -6 1 6 11 1 13
-24 9 -17 -2 -31 -1 -31 4 0 4 8 8 18 8 14 0 15 2 2 10 -12 7 -18 3 -27 -18
-8 -17 -12 -21 -13 -10 0 14 -5 15 -29 8 -24 -7 -31 -4 -40 14 -9 19 -10 18
-6 -9 3 -16 2 -24 -1 -17 -3 6 -12 12 -19 12 -7 0 -16 -6 -18 -12 -3 -7 -6 -3
-6 9 -1 12 -5 24 -10 27 -4 3 -6 -7 -3 -22 4 -26 4 -27 -13 -7 -16 20 -17 20
-10 0 3 -11 3 -16 -1 -12 -4 4 -13 2 -20 -4 -8 -7 -14 -6 -20 2 -4 7 -3 9 4 5
6 -3 13 -2 16 3 7 11 -13 9 -33 -3 -8 -5 -16 -3 -22 5 -5 8 -9 9 -9 4 0 -6 6
-17 13 -24 6 -7 8 -12 2 -11 -28 6 -44 -1 -39 -15 5 -11 2 -13 -10 -9 -9 3
-14 9 -11 13 2 4 -2 8 -9 8 -8 0 -12 -7 -8 -15 4 -11 1 -13 -8 -7 -8 5 -11 4
-6 -3 4 -6 13 -9 20 -6 8 3 16 1 20 -4 3 -5 -8 -8 -24 -7 -16 1 -28 -3 -27 -9
1 -6 -3 -10 -9 -9 -12 2 -12 -26 1 -46 5 -10 4 -12 -3 -7 -7 4 -12 3 -12 -3 0
-6 -8 -8 -17 -5 -15 5 -15 4 -3 -4 8 -6 17 -9 21 -6 4 2 11 -1 15 -7 5 -8 3
-9 -5 -5 -15 10 -11 -25 4 -36 6 -5 5 -8 -4 -8 -11 0 -11 -3 -1 -16 8 -8 9
-14 4 -13 -23 4 -26 -3 -8 -23 10 -12 14 -18 7 -15 -6 4 -14 3 -18 -3 -3 -5
-1 -10 5 -10 7 0 8 -6 1 -18 -6 -10 -8 -30 -5 -43 4 -20 3 -21 -4 -5 -6 14
-11 16 -16 7 -5 -7 0 -21 10 -34 12 -14 8 -12 -11 5 -23 21 -34 25 -45 17 -12
-9 -12 -10 4 -5 14 5 17 2 12 -9 -3 -9 -2 -13 3 -10 5 3 12 2 15 -3 2 -4 -4
-9 -15 -9 -10 -1 -19 2 -19 8 0 5 -5 9 -11 9 -5 0 -7 -4 -4 -10 3 -5 1 -10 -5
-10 -6 0 -8 -5 -4 -12 5 -9 2 -9 -9 1 -18 15 -23 26 -7 16 6 -3 10 -1 10 4 0
6 -5 11 -11 11 -5 0 -7 6 -3 13 4 7 3 9 -2 4 -5 -5 -9 -14 -9 -20 0 -7 -9 -13
-20 -16 -18 -3 -18 -2 -5 15 14 18 14 18 -2 5 -10 -7 -18 -21 -18 -30 0 -13
-2 -14 -9 -1 -6 8 -7 18 -4 24 4 5 1 6 -6 2 -7 -5 -10 -13 -8 -20 3 -8 -5 -13
-22 -14 -14 0 -35 -3 -46 -5 -11 -2 -29 0 -40 6 -19 10 -20 9 -2 -11 14 -15
15 -22 6 -28 -8 -4 -10 -3 -5 4 4 7 -3 11 -22 9 -19 -1 -28 -6 -25 -15 4 -10
9 -10 19 -1 12 10 13 9 8 -5 -7 -19 -25 -21 -41 -5 -8 8 -11 6 -10 -7 1 -11
-4 -18 -11 -16 -8 1 -11 -2 -7 -9 5 -8 10 -8 18 0 6 6 16 11 22 11 5 0 2 -5
-8 -11 -9 -6 -14 -15 -11 -21 5 -7 1 -9 -9 -5 -11 4 -17 1 -17 -9 0 -8 5 -12
11 -9 6 4 5 -2 -2 -13 -7 -12 -16 -19 -20 -17 -3 3 -6 -5 -5 -17 0 -12 -5 -23
-13 -26 -9 -3 -11 0 -6 8 5 9 4 11 -3 6 -9 -5 -9 -13 -1 -27 8 -16 7 -26 -5
-44 -15 -23 -15 -24 1 -18 16 6 17 5 3 -13 -8 -10 -19 -23 -25 -27 -6 -5 -2
-6 8 -3 10 3 21 6 23 6 3 0 3 4 -1 9 -3 5 -1 12 4 15 5 3 7 16 5 29 -4 20 -4
21 5 2 10 -20 10 -20 10 1 1 11 -5 26 -12 33 -10 11 -9 12 2 6 10 -6 12 -4 6
5 -5 8 -4 11 3 6 7 -4 10 1 7 14 -2 11 0 18 5 15 7 -4 7 -25 0 -45 -1 -3 -2
-20 -2 -37 0 -18 -5 -30 -9 -27 -5 3 -9 -5 -9 -18 0 -19 2 -20 10 -8 8 12 9
10 7 -7 -2 -12 -6 -26 -10 -29 -11 -11 -8 -26 3 -19 6 3 7 -1 4 -9 -3 -9 -9
-16 -13 -16 -4 0 -16 -7 -27 -15 -10 -8 -14 -15 -9 -14 6 1 20 1 33 0 21 -1
22 -2 8 -17 -13 -12 -14 -19 -4 -37 16 -29 18 -60 4 -69 -8 -6 -6 -11 4 -18
10 -6 11 -10 3 -10 -7 0 -13 -4 -13 -10 0 -5 7 -6 17 -3 11 4 14 3 9 -5 -4 -7
-22 -10 -44 -7 -20 3 -30 1 -22 -3 19 -9 26 -43 8 -38 -7 1 -10 1 -5 -1 4 -3
7 -12 7 -20 0 -9 6 -13 15 -9 8 3 15 1 15 -5 0 -6 5 -7 12 -3 7 4 8 3 4 -5 -4
-6 -2 -20 6 -29 12 -15 11 -16 -4 -4 -10 8 -23 10 -30 6 -10 -6 -9 -3 1 9 9
11 10 17 2 17 -10 0 -12 -5 -15 -38 -1 -7 -7 -17 -15 -21 -11 -7 -9 -10 7 -16
12 -3 21 -9 21 -13 -3 -19 2 -33 10 -27 5 3 13 0 17 -6 4 -7 3 -9 -4 -5 -6 3
-13 2 -17 -4 -10 -16 -23 -12 -21 6 0 9 -5 18 -12 20 -7 1 -8 0 -2 -3 5 -2 10
-9 10 -14 0 -6 -4 -8 -8 -5 -5 3 -9 -1 -9 -9 0 -8 5 -13 10 -12 5 1 11 -6 12
-15 3 -18 -6 -24 -19 -11 -9 10 -56 12 -51 2 3 -4 13 -6 23 -4 9 1 22 -2 29
-7 8 -6 21 -3 38 8 23 15 25 15 19 0 -3 -9 -9 -16 -13 -16 -4 0 -16 -7 -27
-15 -10 -8 -14 -15 -9 -14 22 3 59 -3 48 -8 -7 -2 -13 -9 -13 -14 0 -6 6 -7
13 -4 6 4 3 -1 -7 -9 -27 -22 -39 -20 -26 4 6 11 7 20 2 20 -15 0 -21 -37 -8
-51 8 -9 7 -10 -7 -6 -10 4 -16 3 -13 -2 3 -5 18 -8 33 -8 16 0 22 2 16 4 -20
7 -15 19 9 20 13 1 18 -1 12 -5 -6 -4 -10 -17 -9 -29 1 -18 -2 -20 -15 -13
-10 5 -20 7 -23 3 -4 -3 -13 0 -21 6 -10 8 -16 9 -21 1 -4 -6 -3 -9 2 -8 13 4
53 -22 53 -34 0 -9 -3 -9 -12 0 -15 15 -28 15 -28 0 0 -6 3 -8 7 -5 8 8 33
-11 33 -25 0 -6 -6 -6 -14 1 -11 9 -16 9 -22 -1 -4 -7 -3 -10 1 -5 5 4 16 0
25 -8 16 -15 17 -13 16 26 -2 35 0 38 11 24 8 -12 9 -24 3 -35 -6 -11 -5 -21
1 -27 8 -8 7 -13 0 -17 -6 -4 -11 -12 -11 -17 0 -6 5 -7 10 -4 6 3 10 2 10 -4
0 -5 -9 -9 -20 -8 -22 1 -25 8 -10 23 6 6 2 14 -13 23 -18 11 -20 11 -9 0 16
-17 16 -29 -1 -25 -6 1 -9 1 -4 -1 4 -3 7 -12 7 -20 0 -9 6 -13 15 -9 8 3 15
1 15 -5 0 -6 5 -7 12 -3 7 4 8 3 4 -5 -4 -6 -2 -20 6 -29 12 -15 11 -16 -5 -3
-9 8 -21 11 -24 7 -4 -4 -1 -11 7 -16 18 -11 21 -50 3 -43 -11 4 -11 9 -1 22
10 13 10 14 -2 4 -19 -17 -35 -17 -21 0 6 8 8 17 4 20 -3 4 0 13 7 22 8 10 9
15 1 15 -10 0 -12 -5 -15 -38 -1 -7 -7 -17 -15 -21 -10 -7 -8 -10 9 -16 18 -6
20 -9 9 -17 -11 -8 -10 -9 4 -4 9 3 17 1 17 -4 0 -5 6 -8 13 -6 6 1 9 1 5 -1
-4 -2 -5 -10 -2 -18 3 -7 0 -16 -5 -20 -15 -9 -3 -27 12 -19 7 4 9 4 5 -1 -4
-4 -2 -15 4 -24 9 -12 7 -11 -8 2 -12 10 -28 15 -38 11 -11 -4 -16 -1 -17 12
0 12 -3 14 -6 6 -3 -7 3 -22 12 -32 15 -16 15 -22 5 -35 -8 -10 -9 -15 -1 -15
6 0 11 5 11 11 0 5 4 8 8 5 5 -3 9 1 9 9 0 8 -4 15 -9 15 -4 0 -8 5 -8 11 0 8
4 8 14 0 8 -7 13 -20 11 -29 -1 -9 6 -29 17 -45 11 -15 16 -27 12 -27 -5 0 -3
-5 3 -11 6 -6 9 -18 6 -27 -5 -11 -3 -13 7 -7 8 5 11 4 7 -3 -4 -5 -16 -8 -27
-5 -21 5 -28 -11 -10 -22 6 -4 8 -10 5 -15 -3 -5 1 -21 10 -34 15 -22 20 -23
41 -14 16 8 23 17 19 27 -3 11 0 9 10 -3 16 -21 20 -40 7 -32 -12 7 -38 -12
-29 -21 5 -4 11 -3 15 2 13 19 31 15 51 -12 12 -14 21 -22 21 -18 0 5 -7 17
-17 27 -9 11 -11 18 -5 18 7 0 17 -9 24 -19 8 -14 17 -17 28 -11 9 5 22 5 30
0 9 -5 19 -5 27 2 9 7 14 6 19 -6 5 -13 9 -14 21 -4 19 15 43 19 43 7 0 -6 5
-7 10 -4 5 3 10 -1 10 -9 0 -9 5 -16 10 -16 7 0 7 7 0 20 -9 17 -7 22 12 30
13 5 21 9 18 10 -22 7 -58 6 -71 -1 -9 -5 -19 -6 -22 -3 -7 7 15 44 26 44 4 0
5 -4 2 -10 -3 -5 1 -10 9 -10 9 0 16 5 16 10 0 6 5 10 11 10 5 0 7 -4 4 -10
-3 -5 -2 -10 4 -10 5 0 12 4 15 9 3 5 20 8 38 7 26 -2 32 -6 30 -20 -2 -10 1
-15 7 -12 15 10 30 -25 21 -49 -6 -16 -4 -21 11 -21 12 0 15 4 9 10 -13 13
-13 29 0 21 6 -3 10 -1 10 5 0 6 4 9 10 5 5 -3 7 -13 4 -23 -5 -16 -5 -16 6 0
6 9 17 15 24 12 8 -3 17 -1 21 5 4 8 12 8 26 1 13 -8 25 -7 40 1 17 8 23 8 30
-2 4 -7 5 -17 2 -23 -3 -5 -1 -6 5 -2 6 4 8 14 5 24 -6 15 -5 15 11 3 10 -9
20 -11 24 -5 12 15 44 14 38 -2 -4 -11 -2 -12 14 -4 26 14 30 13 23 -8 -5 -14
-3 -14 9 2 16 21 48 30 48 15 0 -6 5 -7 10 -4 6 3 10 1 10 -6 0 -10 3 -10 12
-1 9 9 15 7 26 -6 9 -11 9 -8 -2 10 -9 15 -12 29 -7 33 5 3 12 -4 16 -15 3
-11 16 -25 28 -31 21 -10 21 -10 3 5 -15 12 -17 19 -8 28 18 18 52 21 46 4 -3
-9 -13 -12 -22 -9 -14 5 -15 4 -4 -8 11 -12 16 -11 28 6 16 22 35 26 46 11 4
-6 10 -7 15 -3 8 9 -17 28 -28 21 -4 -2 -7 5 -6 16 2 25 3 25 29 0 12 -11 24
-17 27 -15 6 6 -39 40 -53 40 -5 0 -10 -8 -12 -18 -4 -29 -14 -33 -14 -7 0 13
-3 20 -7 16 -5 -4 -8 -12 -8 -18 0 -6 -9 -12 -19 -14 -10 -1 -23 -9 -28 -16
-8 -10 -9 -10 -5 2 4 13 -4 16 -38 16 -24 -1 -41 -4 -39 -7 2 -4 -4 -6 -13 -5
-10 2 -28 -3 -40 -11 -14 -9 -23 -11 -28 -4 -3 6 1 11 9 11 10 0 13 8 10 28
-2 15 -1 23 3 17 5 -5 17 -17 27 -25 18 -14 19 -13 14 2 -4 9 0 24 8 35 14 17
14 17 5 -4 -8 -16 -7 -22 5 -27 23 -9 31 -7 15 3 -12 8 -13 12 -2 25 10 12 17
14 27 5 20 -17 86 -19 80 -3 -3 9 0 11 11 7 12 -5 14 -3 8 7 -6 9 -4 11 6 5
24 -16 58 -15 52 1 -3 8 1 14 11 14 9 0 16 5 16 11 0 5 -5 7 -12 3 -7 -5 -8
-3 -3 5 5 10 10 10 19 1 8 -8 6 -15 -7 -25 -13 -10 -15 -14 -5 -18 11 -4 11
-6 0 -6 -7 -1 -11 -5 -7 -11 3 -5 18 4 34 20 15 16 31 27 34 23 4 -3 7 -4 7
-1 0 3 -7 11 -16 18 -8 8 -14 9 -13 4 5 -26 -3 -26 -16 0 -17 32 -20 51 -4 23
6 -9 15 -15 20 -11 6 3 20 -2 32 -12 21 -18 21 -18 -1 7 -14 16 -20 32 -16 43
5 13 2 15 -12 10 -18 -6 -18 -6 0 8 10 8 16 20 12 26 -5 8 -2 10 9 6 10 -4 12
-10 6 -18 -6 -8 -2 -11 16 -13 15 0 22 2 16 5 -11 8 -14 42 -3 42 3 0 5 16 4
35 -2 21 1 33 6 30 6 -4 10 -4 10 -1 0 3 -9 10 -20 16 -16 9 -18 8 -14 -5 4
-8 2 -15 -3 -15 -5 0 -9 11 -9 23 0 13 6 24 13 24 6 0 10 -4 8 -8 -7 -10 22
-5 32 6 4 4 3 5 -4 1 -22 -12 -37 44 -19 72 5 8 4 18 -2 24 -11 11 -4 50 9 43
4 -3 6 -13 3 -23 -5 -14 -4 -14 4 -2 6 8 8 18 5 24 -4 5 1 7 11 3 10 -4 15 -3
11 3 -4 6 -12 10 -18 9 -36 -4 -57 2 -57 19 0 14 2 15 10 2 8 -13 11 -12 16 6
4 15 12 20 30 18 13 -1 22 1 19 5 -5 9 -42 8 -51 -2 -11 -10 -24 -8 -24 4 0 5
5 7 10 4 14 -9 13 8 -2 23 -9 9 -9 12 0 12 7 0 12 -4 12 -8 0 -5 6 -9 14 -9
12 0 12 4 2 21 -13 24 -14 45 -2 64 5 8 4 18 -2 24 -11 11 -4 50 9 43 4 -3 7
-11 5 -18 -1 -7 -1 -9 1 -4 3 4 10 4 16 0 8 -5 8 -2 0 9 -7 8 -9 18 -5 22 4 4
3 7 -3 6 -31 -7 -55 1 -55 18 0 14 2 15 10 2 8 -13 11 -12 16 6 4 15 12 20 30
18 13 -1 22 1 19 5 -5 9 -42 8 -51 -2 -11 -10 -24 -8 -24 4 0 5 5 7 10 4 14
-9 13 8 -2 23 -9 9 -9 12 0 12 7 0 12 -4 12 -8 0 -5 6 -9 14 -9 12 0 12 4 2
21 -13 24 -14 45 -2 64 5 8 4 18 -2 24 -12 12 -3 50 11 41 6 -3 7 -1 3 5 -4 7
-16 12 -27 12 -20 0 -26 24 -8 36 8 4 7 9 -2 15 -11 7 -10 9 4 9 20 0 22 -11
5 -28 -6 -6 -9 -14 -7 -17 3 -2 15 9 27 25 16 20 18 28 7 24 -8 -4 -15 -1 -15
5 0 10 21 16 43 12 5 -1 6 3 3 8 -3 5 -16 7 -29 3 -20 -5 -21 -4 -7 13 13 16
13 18 0 13 -8 -2 -15 -13 -15 -23 0 -10 -7 -20 -15 -22 -13 -4 -13 -3 0 6 13
9 13 11 1 11 -12 0 -12 3 -3 12 13 13 16 32 4 24 -4 -2 -9 5 -9 16 -2 20 -1
20 12 2 10 -13 14 -15 15 -5 0 11 3 11 17 0 14 -12 16 -12 8 0 -6 11 -4 13 9
8 10 -4 15 -3 11 3 -4 6 -18 8 -33 5 l-27 -4 25 20 25 19 -28 -10 c-37 -13
-40 -13 -25 4 7 8 18 11 23 8 6 -2 5 1 -1 7 -13 14 -7 54 6 46 5 -3 11 -1 14
4 7 11 -13 9 -32 -3 -7 -4 -16 -5 -19 -2 -4 3 -1 6 5 6 7 0 12 5 12 11 0 5 -4
8 -8 5 -5 -3 -8 8 -8 25 0 16 3 29 8 29 4 0 7 -9 5 -19 -1 -11 3 -21 8 -22 6
-1 20 -5 33 -10 12 -5 22 -6 22 -4 0 3 -11 10 -25 15 -28 11 -35 33 -7 24 14
-5 15 -4 2 5 -13 9 -13 11 0 12 8 1 19 1 23 0 5 -1 6 3 2 9 -4 7 -13 6 -28 -1
-16 -9 -22 -9 -25 0 -2 6 -7 9 -11 7 -3 -2 -7 13 -8 35 -2 39 13 61 27 40 5
-9 10 -8 20 4 11 13 10 14 -5 9 -12 -5 -16 -4 -11 4 3 6 2 13 -3 16 -17 11 0
45 20 41 11 -2 17 0 14 5 -6 10 -24 8 -43 -4 -7 -4 -16 -5 -19 -2 -4 3 -1 6 5
6 7 0 12 5 12 11 0 5 -4 8 -8 5 -5 -3 -8 8 -8 25 0 16 3 29 8 29 4 0 7 -10 5
-21 -1 -16 4 -22 23 -25 21 -3 22 -2 8 7 -10 5 -18 14 -18 19 0 5 8 7 18 4 14
-5 15 -4 2 5 -13 9 -13 11 0 12 8 1 19 1 23 0 5 -1 6 3 2 9 -4 7 -13 6 -28 -1
-16 -9 -22 -9 -25 0 -2 6 -7 9 -11 7 -4 -3 -7 14 -7 36 1 24 6 43 14 46 6 2
12 -2 12 -9 0 -8 6 -7 18 4 10 10 22 15 25 12 4 -3 5 -2 2 2 -8 11 -36 13 -29
2 3 -5 1 -9 -5 -9 -5 0 -13 5 -16 10 -4 6 -11 8 -16 5 -5 -4 -9 -1 -9 5 0 7 7
9 16 6 10 -4 14 -2 11 6 -2 7 -9 12 -14 11 -5 -1 -10 5 -10 12 0 11 4 12 13 4
8 -6 14 -7 18 0 4 5 15 8 26 6 12 -2 18 0 15 5 -3 5 -15 7 -26 5 -25 -5 -49 4
-49 17 0 7 5 6 14 -1 10 -9 17 -7 27 6 8 9 9 14 2 10 -21 -13 -43 4 -39 29 3
13 0 24 -5 24 -6 0 -7 5 -4 10 13 21 16 62 4 55 -8 -6 -8 -2 -1 12 7 13 7 24
0 34 -8 11 -9 11 -4 -3 3 -10 1 -20 -3 -22 -4 -3 -7 7 -7 22 2 33 -12 65 -24
57 -5 -3 -12 0 -16 6 -4 8 -3 9 4 5 8 -5 12 2 11 21 0 25 -1 26 -9 8 -7 -17
-9 -17 -9 -2 -1 15 -25 23 -54 18 -5 -1 -6 3 -2 9 3 5 -1 10 -10 10 -10 0 -13
5 -9 13 6 9 4 9 -8 -1 -11 -9 -17 -9 -20 -2 -2 7 -28 11 -61 11 -31 0 -59 5
-62 10 -4 5 -16 14 -28 20 -19 9 -18 7 3 -10z m-369 -132 c-14 -6 -21 -15 -18
-24 4 -9 1 -12 -8 -9 -21 8 4 44 30 43 18 0 17 -1 -4 -10z m697 -520 c9 -12 9
-16 -1 -16 -7 0 -14 9 -14 20 -1 11 -1 18 0 16 2 -2 8 -11 15 -20z m-5 -234
c4 -8 3 -16 -1 -19 -4 -3 -9 4 -9 15 -2 23 3 25 10 4z m-1146 -22 c-4 -3 -1
-13 6 -22 11 -14 10 -14 -5 -2 -16 12 -16 31 -1 31 4 0 3 -3 0 -7z m-4 -167
c8 5 8 2 0 -7 -15 -16 -17 -33 -3 -24 6 3 10 2 10 -4 0 -5 -9 -9 -20 -8 -23 1
-25 8 -8 25 9 9 9 12 -1 12 -7 0 -9 5 -5 12 6 9 9 9 12 0 2 -7 9 -9 15 -6z
m1147 -46 c-12 -8 -12 -10 -1 -10 8 0 12 -3 8 -6 -9 -9 -28 6 -22 17 4 5 12 9
18 9 7 0 6 -4 -3 -10z m12 -45 c0 -5 -5 -10 -11 -11 -8 -2 -7 -1 0 3 8 4 7 8
-2 15 -11 8 -11 9 -1 6 8 -2 14 -8 14 -13z m-1156 -50 c2 -22 1 -23 -12 -10
-9 8 -20 15 -25 15 -5 0 -4 9 3 20 15 23 30 12 34 -25z m1151 -10 c0 -8 -4
-15 -9 -15 -4 0 -8 7 -8 15 0 8 4 15 8 15 5 0 9 -7 9 -15z m-1148 -58 c-2 -1
-12 -9 -22 -16 -15 -12 -17 -12 -11 3 3 9 13 16 22 16 8 0 13 -1 11 -3z m1141
-77 c-12 -8 -12 -10 -1 -10 8 0 12 -3 8 -6 -9 -9 -28 6 -22 17 4 5 12 9 18 9
7 0 6 -4 -3 -10z m12 -45 c0 -5 -5 -10 -11 -11 -8 -2 -7 -1 0 3 8 4 7 8 -2 15
-11 8 -11 9 -1 6 8 -2 14 -8 14 -13z m-5 -60 c0 -8 -4 -15 -9 -15 -4 0 -8 7
-8 15 0 8 4 15 8 15 5 0 9 -7 9 -15z m-7 -135 c-12 -8 -12 -10 -1 -10 8 0 12
-3 8 -6 -9 -9 -28 6 -22 17 4 5 12 9 18 9 7 0 6 -4 -3 -10z m12 -45 c0 -5 -5
-10 -11 -11 -8 -2 -7 -1 0 3 8 4 7 8 -2 15 -11 8 -11 9 -1 6 8 -2 14 -8 14
-13z m-5 -60 c0 -8 -4 -15 -9 -15 -4 0 -8 7 -8 15 0 8 4 15 8 15 5 0 9 -7 9
-15z m8 -94 c-9 -8 -36 -10 -30 -2 2 4 11 8 20 8 8 0 13 -3 10 -6z m-8 -42
c-2 -23 0 -23 -20 -1 -15 16 -15 18 3 19 13 1 18 -4 17 -18z m-1078 -121 c-3
-26 1 -39 11 -33 5 3 7 13 4 23 -5 15 -4 15 6 -1 10 -15 14 -16 28 -5 15 11
15 11 5 -3 -15 -19 -7 -30 14 -22 12 5 14 1 9 -18 l-7 -24 16 25 16 25 -6 -25
-6 -25 21 25 c14 18 18 20 14 6 -6 -16 -3 -17 17 -11 18 5 21 4 9 -4 -13 -9
-13 -11 2 -11 9 0 19 6 22 13 3 6 3 1 -1 -13 -5 -23 -5 -24 13 -10 10 8 23 20
27 25 5 6 6 2 3 -9 -4 -10 -2 -24 4 -31 8 -9 8 -15 0 -20 -16 -10 -32 5 -26
24 4 10 -1 7 -11 -6 -13 -16 -22 -20 -32 -14 -8 5 -20 7 -28 4 -8 -3 -25 5
-39 17 -17 17 -24 19 -24 9 0 -8 -9 1 -20 19 -11 18 -25 30 -30 27 -6 -4 -8
-10 -5 -15 3 -5 -3 -14 -14 -19 -15 -8 -21 -7 -27 7 -4 9 -8 22 -9 27 0 6 -4
16 -9 24 -7 10 -4 12 13 6 14 -4 23 -1 27 9 7 19 16 21 13 4z m545 -52 c-17
-13 -17 -14 4 -25 29 -15 37 -14 22 4 -9 10 -9 15 -1 15 6 0 11 -5 11 -11 0
-5 5 -7 10 -4 6 3 10 2 10 -2 0 -5 9 -9 19 -10 14 -1 18 3 14 15 -4 15 -3 15
6 2 10 -13 13 -13 26 4 8 11 15 14 15 7 0 -7 4 -10 8 -7 4 2 8 -4 9 -14 2 -20
-23 -47 -34 -36 -3 3 0 6 8 6 11 0 11 2 -1 10 -20 13 -33 13 -25 0 10 -15 -5
-32 -18 -22 -13 10 -42 9 -69 -3 -11 -4 -18 -3 -18 3 0 6 -8 9 -17 7 -10 -2
-18 -4 -18 -5 0 -6 -47 -5 -51 1 -2 5 -10 6 -18 3 -7 -3 -18 7 -24 21 -15 32
-15 35 -1 35 5 0 8 -4 5 -9 -3 -5 1 -12 10 -15 8 -3 12 -11 8 -17 -4 -8 -3 -9
5 -5 6 4 9 16 6 27 -4 11 -2 19 5 19 6 0 8 -4 5 -10 -3 -5 1 -10 10 -10 10 0
13 5 9 12 -4 7 -3 8 4 4 7 -4 12 -2 12 5 0 7 6 4 14 -7 9 -12 11 -21 4 -25 -5
-4 -3 -9 7 -12 9 -4 13 -3 10 3 -3 6 -1 10 5 10 6 0 8 5 3 13 -14 22 -11 33 9
34 19 2 19 1 2 -11z m75 -9 c0 -9 -2 -8 -6 1 -2 6 -10 9 -15 6 -7 -4 -8 -2 -4
5 9 13 26 5 25 -12z m119 -2 c-3 -3 -9 2 -12 12 -6 14 -5 15 5 6 7 -7 10 -15
7 -18z m-463 -45 c3 -5 1 -10 -4 -10 -6 0 -11 5 -11 10 0 6 2 10 4 10 3 0 8
-4 11 -10z m542 -5 c0 -10 -6 -14 -14 -10 -8 3 -18 5 -21 6 -4 0 2 4 13 9 11
5 20 9 21 9 0 1 1 -6 1 -14z"/>
<path d="M785 400 c-3 -5 -3 -10 2 -10 4 0 2 -4 -5 -9 -11 -7 -10 -9 3 -14 9
-4 14 -3 10 2 -3 5 1 12 7 14 10 4 10 6 0 6 -7 1 -10 6 -7 11 3 6 4 10 1 10
-3 0 -8 -4 -11 -10z"/>
<path d="M845 380 c11 -14 20 -26 21 -28 1 -2 5 5 8 15 4 9 4 14 0 10 -4 -4
-17 1 -28 10 l-21 18 20 -25z"/>
<path d="M915 350 c-4 -6 -12 -7 -18 -3 -8 5 -8 2 0 -9 7 -8 25 -14 40 -13 16
1 31 -3 35 -9 5 -8 8 -7 8 1 0 17 -57 46 -65 33z m19 -8 c3 -5 -1 -9 -9 -9 -8
0 -12 4 -9 9 3 4 7 8 9 8 2 0 6 -4 9 -8z"/>
<path d="M1281 341 c-14 -11 -20 -21 -13 -25 6 -3 14 -1 18 5 5 8 9 8 14 -1 5
-7 8 -2 8 14 0 14 -1 26 -2 26 0 0 -12 -9 -25 -19z"/>
<path d="M1476 351 c-3 -5 1 -11 9 -14 9 -4 12 -1 8 9 -6 16 -10 17 -17 5z"/>
<path d="M1353 326 c3 -6 11 -9 18 -7 8 3 29 4 47 4 49 -1 29 10 -23 13 -31 1
-45 -2 -42 -10z"/>
<path d="M1435 2390 c3 -5 8 -10 11 -10 2 0 4 5 4 10 0 6 -5 10 -11 10 -5 0
-7 -4 -4 -10z"/>
<path d="M1115 2251 c-3 -5 -2 -12 3 -15 5 -3 9 1 9 9 0 17 -3 19 -12 6z"/>
<path d="M1876 2237 c3 -10 9 -15 12 -12 3 3 0 11 -7 18 -10 9 -11 8 -5 -6z"/>
<path d="M1080 2206 c0 -2 8 -10 18 -17 15 -13 16 -12 3 4 -13 16 -21 21 -21
13z"/>
<path d="M1887 2196 c-4 -10 -3 -15 3 -11 6 3 10 2 10 -4 0 -5 -4 -12 -8 -15
-12 -7 -8 -96 3 -95 6 1 9 5 8 10 -3 9 11 13 37 9 8 -1 13 0 10 2 -3 2 -14 10
-24 18 -13 10 -17 10 -12 3 4 -7 3 -13 -2 -13 -19 0 -21 14 -5 32 10 11 13 19
8 18 -21 -5 -27 1 -15 14 7 10 8 21 2 32 -8 15 -9 15 -15 0z"/>
<path d="M1124 2172 c4 -7 1 -15 -9 -18 -14 -6 -14 -8 2 -21 17 -13 16 -14 -7
-8 -19 5 -22 4 -10 -4 12 -9 13 -11 1 -11 -8 0 -12 -3 -9 -6 4 -3 15 -1 26 5
19 10 24 53 8 68 -5 4 -6 2 -2 -5z"/>
<path d="M1056 2122 c-3 -5 1 -9 9 -9 8 0 12 4 9 9 -3 4 -7 8 -9 8 -2 0 -6 -4
-9 -8z"/>
<path d="M1115 2089 c-10 -15 3 -25 16 -12 7 7 7 13 1 17 -6 3 -14 1 -17 -5z"/>
<path d="M1086 2082 c-6 -9 2 -22 27 -41 15 -12 17 -11 17 4 0 10 -3 15 -7 12
-9 -9 -34 13 -27 24 3 5 3 9 0 9 -3 0 -7 -4 -10 -8z"/>
<path d="M1068 2043 c5 -21 7 -23 10 -9 2 10 0 22 -6 28 -6 6 -7 0 -4 -19z"/>
<path d="M1095 2030 c-4 -6 -3 -16 3 -22 13 -13 23 4 13 21 -7 10 -10 10 -16
1z"/>
<path d="M1910 1989 c0 -5 5 -7 10 -4 6 3 10 8 10 11 0 2 -4 4 -10 4 -5 0 -10
-5 -10 -11z"/>
<path d="M917 1963 c-10 -9 -9 -23 1 -23 5 0 9 7 9 15 0 17 -1 18 -10 8z"/>
<path d="M885 1950 c-3 -5 -12 -7 -20 -3 -8 3 -15 3 -15 0 0 -13 30 -14 40 -1
7 8 10 14 7 14 -3 0 -8 -4 -12 -10z"/>
<path d="M1882 1910 c1 -36 17 -50 30 -26 5 9 14 13 21 9 9 -5 8 -2 0 9 -7 8
-9 19 -5 23 4 5 1 5 -6 1 -7 -4 -19 -3 -27 4 -11 9 -14 6 -13 -20z m38 -5 c0
-1 -6 -8 -14 -15 -12 -9 -15 -8 -13 8 0 12 6 18 14 15 7 -3 13 -6 13 -8z"/>
<path d="M715 1800 c-3 -5 -1 -10 4 -10 6 0 11 5 11 10 0 6 -2 10 -4 10 -3 0
-8 -4 -11 -10z"/>
<path d="M685 1760 c-3 -6 1 -7 9 -4 18 7 21 14 7 14 -6 0 -13 -4 -16 -10z"/>
<path d="M1914 1749 c1 -7 10 -13 19 -15 9 -1 15 2 11 7 -3 5 -9 7 -14 4 -4
-3 -11 0 -13 5 -3 6 -4 5 -3 -1z"/>
<path d="M1882 1670 c1 -36 17 -50 30 -26 5 9 14 13 21 9 9 -5 8 -2 0 9 -7 8
-9 19 -5 23 4 5 1 5 -6 1 -7 -4 -19 -3 -27 4 -11 9 -14 6 -13 -20z m38 -5 c0
-1 -6 -8 -14 -15 -12 -9 -15 -8 -13 8 0 12 6 18 14 15 7 -3 13 -6 13 -8z"/>
<path d="M696 1601 c-3 -5 1 -11 9 -15 15 -6 29 7 18 18 -9 9 -21 8 -27 -3z"/>
<path d="M683 1573 c9 -2 17 -9 17 -15 0 -6 -8 -7 -17 -3 -15 5 -16 4 -5 -6 9
-10 15 -10 23 -2 14 14 3 33 -19 32 -15 -1 -15 -2 1 -6z"/>
<path d="M656 1515 c4 -8 8 -15 10 -15 2 0 4 7 4 15 0 8 -4 15 -10 15 -5 0 -7
-7 -4 -15z"/>
<path d="M1914 1509 c1 -7 10 -13 19 -15 9 -1 15 2 11 7 -3 5 -9 7 -14 4 -4
-3 -11 0 -13 5 -3 6 -4 5 -3 -1z"/>
<path d="M687 1480 c-3 -11 -3 -20 -1 -20 2 0 8 9 14 20 6 11 7 20 2 20 -6 0
-12 -9 -15 -20z"/>
<path d="M655 1481 c-3 -5 -2 -12 3 -15 5 -3 9 1 9 9 0 17 -3 19 -12 6z"/>
<path d="M696 1451 c-4 -5 -15 -8 -26 -6 -12 2 -18 0 -15 -6 4 -5 10 -7 13 -5
4 2 18 -4 31 -13 16 -12 20 -21 12 -25 -6 -4 -11 -3 -11 2 0 6 -6 12 -13 15
-8 3 -14 -1 -14 -9 0 -7 3 -11 7 -9 3 2 11 -5 18 -16 13 -20 3 -26 -14 -9 -7
7 -11 6 -11 -3 0 -8 9 -13 21 -13 12 1 20 8 18 15 -1 7 2 19 8 26 8 10 8 15
-1 20 -8 6 -8 9 0 15 9 5 8 10 -3 19 -9 8 -16 8 -20 2z m14 -11 c0 -5 -5 -10
-11 -10 -5 0 -7 5 -4 10 3 6 8 10 11 10 2 0 4 -4 4 -10z"/>
<path d="M620 1326 c0 -2 8 -10 18 -17 15 -13 16 -12 3 4 -13 16 -21 21 -21
13z"/>
<path d="M1913 1317 c-3 -5 0 -14 6 -20 9 -9 10 -7 5 7 -5 13 -4 17 4 12 6 -3
13 -3 16 2 3 5 -2 9 -10 9 -8 0 -17 -4 -21 -10z"/>
<path d="M630 1259 c0 -5 5 -7 10 -4 6 3 10 8 10 11 0 2 -4 4 -10 4 -5 0 -10
-5 -10 -11z"/>
<path d="M673 1245 c0 -8 4 -12 9 -9 5 3 6 10 3 15 -9 13 -12 11 -12 -6z"/>
<path d="M1926 1222 c-3 -5 1 -9 9 -9 8 0 12 4 9 9 -3 4 -7 8 -9 8 -2 0 -6 -4
-9 -8z"/>
<path d="M1910 1189 c0 -5 5 -7 10 -4 6 3 10 8 10 11 0 2 -4 4 -10 4 -5 0 -10
-5 -10 -11z"/>
<path d="M1910 1161 c0 -5 8 -15 18 -22 15 -12 16 -12 5 2 -7 9 -10 19 -6 22
3 4 1 7 -5 7 -7 0 -12 -4 -12 -9z"/>
<path d="M1910 1069 c0 -5 5 -7 10 -4 6 3 10 8 10 11 0 2 -4 4 -10 4 -5 0 -10
-5 -10 -11z"/>
<path d="M657 1013 c-10 -9 -9 -23 1 -23 5 0 9 7 9 15 0 17 -1 18 -10 8z"/>
<path d="M1926 982 c-3 -5 1 -9 9 -9 8 0 12 4 9 9 -3 4 -7 8 -9 8 -2 0 -6 -4
-9 -8z"/>
<path d="M1910 949 c0 -5 5 -7 10 -4 6 3 10 8 10 11 0 2 -4 4 -10 4 -5 0 -10
-5 -10 -11z"/>
<path d="M1910 921 c0 -6 5 -13 12 -17 7 -5 8 -3 3 6 -6 10 -4 12 9 7 10 -4
15 -3 11 3 -8 13 -35 13 -35 1z"/>
<path d="M639 893 c-13 -16 -12 -17 4 -4 9 7 17 15 17 17 0 8 -8 3 -21 -13z"/>
<path d="M1910 829 c0 -5 5 -7 10 -4 6 3 10 8 10 11 0 2 -4 4 -10 4 -5 0 -10
-5 -10 -11z"/>
<path d="M673 765 c0 -8 4 -12 9 -9 5 3 6 10 3 15 -9 13 -12 11 -12 -6z"/>
<path d="M1926 742 c-3 -5 1 -9 9 -9 8 0 12 4 9 9 -3 4 -7 8 -9 8 -2 0 -6 -4
-9 -8z"/>
<path d="M1910 709 c0 -5 5 -7 10 -4 6 3 10 8 10 11 0 2 -4 4 -10 4 -5 0 -10
-5 -10 -11z"/>
<path d="M1910 680 c0 -4 7 -7 15 -6 23 3 26 12 5 13 -11 1 -20 -2 -20 -7z"/>
<path d="M673 655 c0 -8 4 -12 8 -9 4 2 11 -5 14 -17 6 -19 9 -20 22 -6 16 16
9 42 -8 31 -5 -3 -16 -1 -23 5 -9 8 -13 7 -13 -4z m47 -15 c0 -5 -5 -10 -11
-10 -5 0 -7 5 -4 10 3 6 8 10 11 10 2 0 4 -4 4 -10z"/>
<path d="M1930 619 c0 -5 5 -7 10 -4 6 3 10 8 10 11 0 2 -4 4 -10 4 -5 0 -10
-5 -10 -11z"/>
<path d="M676 553 c-6 -14 -5 -15 5 -6 7 7 10 15 7 18 -3 3 -9 -2 -12 -12z"/>
<path d="M1914 539 c-3 -6 -2 -15 4 -21 6 -6 12 -6 17 3 6 8 4 10 -5 4 -10 -6
-12 -4 -7 8 7 19 2 23 -9 6z"/>
<path d="M716 522 c-3 -4 -3 -17 -2 -28 2 -10 -2 -23 -8 -27 -7 -6 -5 -7 6 -4
9 3 22 -1 28 -8 7 -8 16 -12 22 -9 5 3 4 12 -4 21 -7 9 -11 18 -10 20 2 3 1 7
-2 11 -3 3 -6 -2 -6 -12 0 -9 -5 -14 -10 -11 -7 4 -7 12 0 25 10 18 -3 39 -14
22z"/>
<path d="M677 499 c7 -7 15 -10 18 -7 3 3 -2 9 -12 12 -14 6 -15 5 -6 -5z"/>
<path d="M667 479 c7 -7 15 -10 18 -7 3 3 -2 9 -12 12 -14 6 -15 5 -6 -5z"/>
<path d="M1866 482 c-8 -7 14 -32 27 -32 6 0 2 7 -9 15 -19 15 -19 16 1 13 11
-2 23 -7 26 -11 3 -5 9 -3 11 5 4 9 -3 14 -23 14 -15 1 -30 -1 -33 -4z"/>
<path d="M693 435 c0 -8 4 -12 9 -9 4 3 8 9 8 15 0 5 -4 9 -8 9 -5 0 -9 -7 -9
-15z"/>
<path d="M1907 419 c7 -7 15 -10 18 -7 3 3 -2 9 -12 12 -14 6 -15 5 -6 -5z"/>
<path d="M717 413 c-13 -12 -7 -23 11 -22 10 0 12 3 4 6 -6 2 -10 9 -6 14 6
10 0 12 -9 2z"/>
<path d="M680 400 c-9 -6 -10 -10 -3 -10 6 0 15 5 18 10 8 12 4 12 -15 0z"/>
<path d="M1834 376 c-10 -8 -17 -16 -14 -19 3 -2 14 4 24 14 23 22 18 25 -10
5z"/>
<path d="M1606 372 c-3 -6 -1 -14 6 -18 16 -10 99 -13 93 -4 -2 4 -19 6 -37 6
-19 -1 -38 4 -44 13 -7 9 -13 11 -18 3z"/>
<path d="M730 361 c0 -6 4 -13 10 -16 6 -3 7 1 4 9 -7 18 -14 21 -14 7z"/>
<path d="M1859 353 c-13 -16 -12 -17 4 -4 16 13 21 21 13 21 -2 0 -10 -8 -17
-17z"/>
<path d="M1125 352 c-3 -3 0 -11 6 -18 9 -10 7 -15 -5 -20 -19 -7 -22 -25 -3
-21 6 1 11 -3 10 -9 -1 -6 5 -11 12 -11 10 0 12 4 5 12 -7 9 -5 17 7 26 15 12
16 12 10 -3 -4 -13 -2 -15 10 -11 11 4 14 2 9 -5 -4 -8 -2 -10 8 -6 16 6 18
44 1 41 -5 -1 -9 5 -9 14 1 11 -7 16 -27 16 -16 0 -31 -3 -34 -5z m66 -39 c13
-17 13 -17 -7 -1 -19 17 -21 17 -39 0 -17 -16 -18 -16 -6 0 7 9 10 22 6 29
-12 18 29 -7 46 -28z"/>
<path d="M756 313 c-6 -14 -5 -15 5 -6 7 7 10 15 7 18 -3 3 -9 -2 -12 -12z"/>
<path d="M856 297 c3 -10 9 -15 12 -12 3 3 0 11 -7 18 -10 9 -11 8 -5 -6z"/>
<path d="M1805 300 c-3 -6 1 -7 9 -4 18 7 21 14 7 14 -6 0 -13 -4 -16 -10z"/>
<path d="M836 287 c3 -10 9 -15 12 -12 3 3 0 11 -7 18 -10 9 -11 8 -5 -6z"/>
<path d="M930 279 c0 -5 5 -7 10 -4 6 3 10 8 10 11 0 2 -4 4 -10 4 -5 0 -10
-5 -10 -11z"/>
<path d="M1325 280 c3 -5 8 -10 11 -10 2 0 4 5 4 10 0 6 -5 10 -11 10 -5 0 -7
-4 -4 -10z"/>
<path d="M1470 281 c0 -6 4 -13 10 -16 6 -3 7 1 4 9 -7 18 -14 21 -14 7z"/>
<path d="M1555 279 c-4 -6 -4 -13 -1 -16 3 -4 6 -1 6 7 0 10 3 10 15 0 13 -11
14 -10 9 4 -7 18 -20 21 -29 5z"/>
<path d="M1730 282 c0 -5 7 -9 15 -9 8 0 12 4 9 9 -3 4 -9 8 -15 8 -5 0 -9 -4
-9 -8z"/>
<path d="M954 269 c-3 -6 -2 -15 3 -20 5 -5 9 -1 9 11 0 23 -2 24 -12 9z"/>
<path d="M890 259 c0 -5 5 -7 10 -4 6 3 10 8 10 11 0 2 -4 4 -10 4 -5 0 -10
-5 -10 -11z"/>
<path d="M1276 253 c-6 -14 -5 -15 5 -6 7 7 10 15 7 18 -3 3 -9 -2 -12 -12z"/>
<path d="M1340 260 c-9 -6 -10 -10 -3 -10 6 0 15 5 18 10 8 12 4 12 -15 0z"/>
<path d="M1076 242 c-3 -5 1 -9 9 -9 8 0 12 4 9 9 -3 4 -7 8 -9 8 -2 0 -6 -4
-9 -8z"/>
<path d="M1450 246 c0 -2 7 -7 16 -10 8 -3 12 -2 9 4 -6 10 -25 14 -25 6z"/>
</g>
</svg>
